<svg id="Icon_feather-settings" data-name="Icon feather-settings" xmlns="http://www.w3.org/2000/svg" width="59.5" height="59.5" viewBox="0 0 59.5 59.5">
  <path id="Path_4" data-name="Path 4" d="M28.909,21.2a7.7,7.7,0,1,1-7.7-7.7A7.7,7.7,0,0,1,28.909,21.2Z" transform="translate(8.545 8.545)" fill="none" stroke="#1868fb" stroke-linecap="round" stroke-linejoin="round" stroke-width="3"/>
  <path id="Path_5" data-name="Path 5" d="M48.755,37.455a4.238,4.238,0,0,0,.847,4.674l.154.154a5.139,5.139,0,1,1-7.268,7.268l-.154-.154a4.272,4.272,0,0,0-7.242,3.03v.437a5.136,5.136,0,0,1-10.273,0v-.231a4.237,4.237,0,0,0-2.774-3.878,4.238,4.238,0,0,0-4.674.847l-.154.154a5.139,5.139,0,1,1-7.268-7.268l.154-.154a4.272,4.272,0,0,0-3.03-7.242H6.636a5.136,5.136,0,0,1,0-10.273h.231a4.237,4.237,0,0,0,3.878-2.774A4.238,4.238,0,0,0,9.9,17.371l-.154-.154a5.139,5.139,0,1,1,7.268-7.268l.154.154a4.238,4.238,0,0,0,4.674.847h.205a4.237,4.237,0,0,0,2.568-3.878V6.636a5.136,5.136,0,0,1,10.273,0v.231A4.272,4.272,0,0,0,42.129,9.9l.154-.154a5.139,5.139,0,1,1,7.268,7.268l-.154.154a4.238,4.238,0,0,0-.848,4.674v.205a4.237,4.237,0,0,0,3.878,2.568h.437a5.136,5.136,0,0,1,0,10.273h-.231a4.237,4.237,0,0,0-3.878,2.568Z" transform="translate(0 0)" fill="none" stroke="#1868fb" stroke-linecap="round" stroke-linejoin="round" stroke-width="3"/>
</svg>
