<svg xmlns="http://www.w3.org/2000/svg" width="80.4" height="81.811" viewBox="0 0 80.4 81.811">
  <g id="dco1" transform="translate(-461 -132.791)">
    <path id="Path_18" data-name="Path 18" d="M707.317,280.591a3.191,3.191,0,0,1,3.187,3.187V352.84a3.191,3.191,0,0,1-3.187,3.187H639.665a3.191,3.191,0,0,1-3.187-3.187V283.778a3.191,3.191,0,0,1,3.187-3.187h67.652m0-3.187H639.665a6.374,6.374,0,0,0-6.374,6.374V352.84a6.374,6.374,0,0,0,6.374,6.374h67.652a6.374,6.374,0,0,0,6.374-6.374V283.778a6.374,6.374,0,0,0-6.374-6.374Z" transform="translate(-172.291 -144.612)" fill="#1868fb"/>
    <path id="Path_19" data-name="Path 19" d="M696.765,298.744H651.628a1.594,1.594,0,0,1,0-3.187h45.137a1.594,1.594,0,0,1,0,3.187Z" transform="translate(-172.291 -144.612)" fill="#f26322"/>
    <path id="Path_20" data-name="Path 20" d="M696.765,310.029H651.628a1.594,1.594,0,1,1,0-3.187h45.137a1.594,1.594,0,0,1,0,3.187Z" transform="translate(-172.291 -144.612)" fill="#f26322"/>
    <path id="Path_21" data-name="Path 21" d="M696.765,321.313H651.628a1.594,1.594,0,0,1,0-3.187h45.137a1.594,1.594,0,0,1,0,3.187Z" transform="translate(-172.291 -144.612)" fill="#f26322"/>
    <path id="Path_22" data-name="Path 22" d="M696.765,332.6H651.628a1.594,1.594,0,0,1,0-3.187h45.137a1.594,1.594,0,0,1,0,3.187Z" transform="translate(-172.291 -144.612)" fill="#f26322"/>
    <path id="Path_23" data-name="Path 23" d="M696.765,343.882H651.628a1.594,1.594,0,0,1,0-3.187h45.137a1.594,1.594,0,0,1,0,3.187Z" transform="translate(-172.291 -144.612)" fill="#f26322"/>
  </g>
</svg>
