<svg xmlns="http://www.w3.org/2000/svg" width="100.926" height="81.138" viewBox="0 0 100.926 81.138">
  <g id="cloud" transform="translate(-421.774 -928.362)">
    <path id="Icon_feather-cloud" data-name="Icon feather-cloud" d="M77.156,32.7H71.55A35.594,35.594,0,1,0,37.113,77.191H77.156a22.246,22.246,0,0,0,0-44.493Z" transform="translate(421.797 923.905)" fill="none" stroke="#1868fb" stroke-linecap="round" stroke-linejoin="round" stroke-width="3"/>
    <path id="Icon_awesome-cloud" data-name="Icon awesome-cloud" d="M37.8,15.933A6.758,6.758,0,0,0,31.5,6.75a6.716,6.716,0,0,0-3.748,1.139,11.251,11.251,0,0,0-21,5.611c0,.19.007.38.014.57a10.128,10.128,0,0,0,3.361,19.68H36a9,9,0,0,0,1.8-17.817Z" transform="translate(476 975.75)" fill="#004fe2"/>
  </g>
</svg>
